<?xml version="1.0" standalone="no"?><svg xmlns="http://www.w3.org/2000/svg" viewBox="0 0 1130 200"><path fill="#0099ff" fill-opacity="0.7" d="M0,128L40,154.7C80,181,160,235,240,256C320,277,400,267,480,256C560,245,640,235,720,245.3C800,256,880,288,960,256C1040,224,1120,128,1200,90.7C1280,53,1360,75,1400,85.3L1440,96L1440,320L1400,320C1360,320,1280,320,1200,320C1120,320,1040,320,960,320C880,320,800,320,720,320C640,320,560,320,480,320C400,320,320,320,240,320C160,320,80,320,40,320L0,320Z"></path></svg>